<svg width="130" height="110" viewBox="0 0 130 110" fill="none" xmlns="http://www.w3.org/2000/svg">
<g clip-path="url(#clip0_108_14098)">
<path d="M79.11 56.5607C80.6981 56.18 82.3705 56.3889 83.8162 57.1485C85.2619 57.9082 86.3826 59.1669 86.97 60.6907L98.61 90.9607C99.2042 92.5041 99.2129 94.2116 98.6344 95.761C98.0559 97.3103 96.9303 98.5943 95.47 99.3707C94.6252 99.8175 93.6952 100.08 92.7414 100.141C91.7877 100.202 90.8318 100.06 89.9369 99.7247C89.042 99.3892 88.2284 98.8678 87.5498 98.1949C86.8712 97.5219 86.343 96.7127 86 95.8207L74.37 65.5307C74.0263 64.6335 73.8783 63.6733 73.936 62.7142C73.9937 61.7552 74.2558 60.8196 74.7047 59.9702C75.1535 59.1207 75.7788 58.377 76.5386 57.789C77.2984 57.201 78.1751 56.7822 79.11 56.5607Z" fill="white"/>
<path d="M107.23 74.3806L117.03 66.0206C117.382 65.7203 117.832 65.5594 118.295 65.5687C118.758 65.5779 119.201 65.7565 119.54 66.0706L119.88 66.3906L123.79 63.3906C123.79 63.3906 125.56 64.6206 123.89 66.8006C122.22 68.9806 120.89 73.2006 112.08 79.8606L107.23 74.3806Z" fill="#D08864"/>
<path d="M127.96 58.8594L116.58 69.8094" stroke="#312220" stroke-width="2.21" stroke-linecap="round" stroke-linejoin="round"/>
<path d="M107.81 72.8008L88.3096 86.1908L96.7296 98.5208L114.23 80.3708L107.81 72.8008Z" fill="white"/>
<path d="M16.0598 21.0682C16.0598 21.0682 20.3898 20.3482 19.6498 14.8582L18.6498 7.77823C18.6197 7.60568 18.554 7.4413 18.4568 7.29557C18.3596 7.14984 18.2331 7.02596 18.0854 6.93186C17.9377 6.83776 17.7719 6.77551 17.5988 6.74906C17.4256 6.7226 17.2489 6.73254 17.0798 6.77823C16.838 6.84253 16.621 6.97795 16.457 7.16693C16.293 7.35592 16.1894 7.58976 16.1598 7.83823L15.6298 11.8982L10.4098 0.778232C10.3244 0.601279 10.2019 0.444774 10.0506 0.319339C9.89935 0.193905 9.72288 0.102493 9.53318 0.0512729C9.34347 5.24744e-05 9.14496 -0.00976655 8.95113 0.0224948C8.7573 0.0547561 8.57268 0.128318 8.4098 0.238224C8.14831 0.41513 7.9571 0.678108 7.86941 0.981388C7.78171 1.28467 7.80308 1.60907 7.92979 1.89823L10.9298 8.89823L10.3898 9.42823L5.7298 3.29825C5.61199 3.14851 5.46293 3.02626 5.29303 2.94004C5.12312 2.85382 4.93645 2.80568 4.74604 2.79901C4.55563 2.79235 4.36605 2.8273 4.19054 2.90143C4.01502 2.97556 3.85778 3.0871 3.7298 3.22824C3.52799 3.45417 3.41073 3.74305 3.39796 4.04572C3.3852 4.34838 3.47773 4.64613 3.6598 4.88825L8.2298 10.9382L7.69979 11.5682L3.14979 6.99823C3.04912 6.89451 2.92865 6.81205 2.79553 6.75574C2.66241 6.69943 2.51934 6.67041 2.37479 6.67041C2.23025 6.67041 2.08718 6.69943 1.95405 6.75574C1.82093 6.81205 1.70046 6.89451 1.59979 6.99823C1.41202 7.19689 1.3074 7.45989 1.3074 7.73325C1.3074 8.0066 1.41202 8.26958 1.59979 8.46823L6.28979 13.4082L5.8698 13.9482L1.5198 10.7882C1.40248 10.7148 1.27119 10.6664 1.13423 10.6463C0.997275 10.6262 0.857638 10.6348 0.724158 10.6715C0.590678 10.7081 0.466269 10.7721 0.358794 10.8593C0.251319 10.9466 0.16312 11.0551 0.0997914 11.1782C0.0152511 11.3695 -0.00311306 11.5834 0.0475987 11.7863C0.0983105 11.9891 0.215202 12.1693 0.37979 12.2983L5.37979 16.2282C5.37979 16.2282 8.96979 23.1083 12.6998 22.2983L16.0598 21.0682Z" fill="#D08864"/>
<path d="M15.6604 11.8488C15.6604 11.8488 12.3404 11.6388 12.6604 17.0088" stroke="#A96448" stroke-width="0.72" stroke-linecap="round" stroke-linejoin="round"/>
<path d="M11.4004 21.6084L13.3504 32.9984L21.4504 31.3584L18.1104 17.8984L11.4004 21.6084Z" fill="#D08864"/>
<path d="M53.1105 70.2784C51.0605 72.9584 50.0605 74.9884 47.1105 73.2784L19.4905 57.7184C18.06 56.8909 16.9816 55.5689 16.4585 54.0013C15.9354 52.4338 16.0037 50.729 16.6505 49.2084C17.0268 48.3295 17.5853 47.5405 18.289 46.8934C18.9928 46.2462 19.8258 45.7558 20.733 45.4543C21.6403 45.1528 22.6012 45.0472 23.5523 45.1444C24.5033 45.2417 25.423 45.5396 26.2505 46.0184L55.0105 58.3984C58.6105 60.4584 55.6105 67.0484 53.1105 70.2784Z" fill="white"/>
<path d="M9.75977 24.4209L16.2698 53.3209L31.8198 52.3109L21.8098 22.2109L9.75977 24.4209Z" fill="white"/>
<path d="M62.7399 55.7987L44.6299 54.4688L45.4999 67.9788L51.6599 94.4887H78.7699L82.4299 66.8887L81.5499 56.3988L74.0699 56.0387L62.7399 55.7987Z" fill="white"/>
<path d="M80.5 81.4295L82.43 67.7695" stroke="#DDDDDD" stroke-width="0.95" stroke-miterlimit="10"/>
<path d="M71.7002 37.6486C71.5602 40.9786 72.9302 43.7786 75.5702 43.8986C78.2102 44.0186 81.1102 41.4087 81.2602 38.0687C81.4102 34.7287 78.7402 31.9287 76.1002 31.8087C73.4602 31.6887 71.8502 34.3086 71.7002 37.6486Z" fill="#492B7C"/>
<path d="M79.7984 37.9866C79.9576 34.3837 77.7787 31.361 74.9317 31.2352C72.0847 31.1094 69.6476 33.9281 69.4884 37.5311C69.3292 41.134 71.5082 44.1567 74.3552 44.2825C77.2022 44.4083 79.6392 41.5895 79.7984 37.9866Z" fill="#492B7C"/>
<path d="M74.0704 56.0295L55.6104 55.2695L65.3804 62.0695C65.9381 62.3835 66.5533 62.5822 67.1893 62.6539C67.8254 62.7256 68.4693 62.6688 69.083 62.4869C69.6967 62.3051 70.2676 62.0018 70.7619 61.5952C71.2561 61.1885 71.6637 60.6867 71.9604 60.1195L74.0704 56.0295Z" fill="#D08864"/>
<path d="M51.4898 22.2509C51.4898 22.2509 44.1098 15.1009 39.2098 18.8009C35.3298 21.7309 35.0398 27.5609 35.0898 29.8609C35.1352 31.2181 34.9388 32.5726 34.5098 33.8609C33.7047 35.8079 32.1836 37.372 30.2598 38.2309L41.9198 43.6609C41.9198 43.6609 40.1398 39.0909 42.6498 37.3109C45.1598 35.5309 47.6498 35.3109 48.2798 33.1509C49.2198 30.0609 43.4998 22.6609 50.4598 24.9809L51.4898 22.2509Z" fill="#312220"/>
<path d="M54.39 21.8086C54.39 21.8086 51.2 19.1986 49.71 22.2986C48.54 24.7286 48.98 26.2386 51.05 26.4586C53.12 26.6786 54.39 21.8086 54.39 21.8086Z" fill="#F97352"/>
<path d="M77.4602 30.7214C77.4602 38.1914 71.1402 45.8614 63.3402 45.8614C55.5402 45.8614 49.9902 38.1914 49.9902 30.7214C49.9902 23.2514 55.5402 17.9414 63.3402 17.9414C71.1402 17.9414 77.4602 23.2414 77.4602 30.7214Z" fill="#312220"/>
<path d="M70.3401 46.3789L70.7701 55.9489C70.8011 56.6134 70.6976 57.2772 70.4657 57.9007C70.2339 58.5242 69.8785 59.0945 69.421 59.5773C68.9634 60.0601 68.413 60.4455 67.8028 60.7104C67.1927 60.9753 66.5353 61.1142 65.8701 61.1189C64.544 61.1189 63.2723 60.5921 62.3346 59.6544C61.3969 58.7168 60.8701 57.445 60.8701 56.1189L61.0701 46.4189L70.3401 46.3789Z" fill="#D08864"/>
<path d="M70.6098 52.5102L61.6098 47.3802C61.1698 47.0802 63.8698 45.9502 64.3998 45.9102L70.3998 47.6201L70.6098 52.5102Z" fill="#A96448"/>
<path d="M67.1101 49.1681C72.2201 48.9981 76.3001 44.8281 76.3001 40.6481L76.2501 30.7781C76.2541 28.2583 75.2773 25.8358 73.5266 24.0235C71.7759 22.2111 69.3886 21.1512 66.8701 21.0681C61.5101 20.8881 56.0801 25.0681 55.8701 30.4081L55.9901 38.3381C56.1201 44.4781 60.9701 48.9581 67.1101 49.1681Z" fill="#D08864"/>
<path d="M70.83 39.2188L71.06 40.6287L69.79 40.7188" stroke="#312220" stroke-width="0.78" stroke-linecap="round" stroke-linejoin="round"/>
<path d="M72.4297 36.6483C72.4298 36.8287 72.4834 37.0051 72.5838 37.1549C72.6843 37.3048 72.827 37.4214 72.9938 37.49C73.1607 37.5586 73.3442 37.576 73.521 37.5401C73.6978 37.5041 73.8599 37.4165 73.9867 37.2882C74.1136 37.1599 74.1995 36.9968 74.2335 36.8197C74.2674 36.6425 74.248 36.4592 74.1776 36.2931C74.1071 36.127 73.989 35.9856 73.838 35.8868C73.687 35.7881 73.5101 35.7364 73.3297 35.7383C73.2107 35.7383 73.0928 35.7619 72.983 35.8078C72.8731 35.8536 72.7735 35.9209 72.6898 36.0055C72.6061 36.0901 72.54 36.1905 72.4954 36.3009C72.4507 36.4112 72.4284 36.5293 72.4297 36.6483Z" fill="#312220"/>
<path d="M64.6104 36.6618C64.6084 36.8426 64.6604 37.0199 64.7596 37.1711C64.8588 37.3222 65.0008 37.4404 65.1675 37.5105C65.3342 37.5806 65.518 37.5995 65.6954 37.5647C65.8729 37.5299 66.0359 37.443 66.1638 37.3152C66.2917 37.1873 66.3786 37.0242 66.4134 36.8468C66.4481 36.6693 66.4293 36.4856 66.3592 36.3189C66.2891 36.1522 66.1709 36.0102 66.0197 35.9109C65.8685 35.8117 65.6912 35.7598 65.5104 35.7618C65.2717 35.7618 65.0428 35.8566 64.874 36.0254C64.7052 36.1942 64.6104 36.4231 64.6104 36.6618Z" fill="#312220"/>
<path d="M62.28 33.1296C62.28 33.1296 62.2 33.8996 63.71 33.7296C64.5574 33.6026 65.4132 33.5391 66.27 33.5396C66.4384 33.5568 66.6084 33.5309 66.7641 33.4645C66.9197 33.398 67.056 33.2931 67.16 33.1596C67.2003 33.0493 67.1968 32.9278 67.1503 32.8199C67.1038 32.7121 67.0179 32.6261 66.91 32.5796C66.0299 32.2214 65.0685 32.1108 64.13 32.2596C62.33 32.4396 62.28 33.1296 62.28 33.1296Z" fill="#312220"/>
<path d="M75.3701 33.0699C75.3701 33.0699 75.3101 33.7899 74.2701 33.6299C73.6836 33.5148 73.0877 33.4546 72.4901 33.45C72.3691 33.468 72.2456 33.4428 72.1413 33.3788C72.0371 33.3147 71.9587 33.216 71.9201 33.0999C71.8988 33.0083 71.9089 32.9121 71.9488 32.8269C71.9887 32.7417 72.056 32.6723 72.1401 32.6299C72.7593 32.2712 73.4834 32.137 74.1901 32.2499C75.4301 32.3799 75.3701 33.0699 75.3701 33.0699Z" fill="#312220"/>
<path d="M71.0898 42.1914C71.0098 42.1914 65.8398 42.3314 65.8398 42.3314C65.8398 42.3314 66.1398 44.2514 68.7198 44.2114C70.4998 44.1714 71.0898 42.1914 71.0898 42.1914Z" fill="white"/>
<path d="M62.89 26.8203C62.89 26.8203 60.99 31.0703 58.36 33.2103L58.01 37.4903L52.25 32.9503L53.33 27.5103L62.89 26.8203Z" fill="#312220"/>
<path d="M51.2802 38.4491C51.2569 39.1626 51.4456 39.8669 51.8225 40.4731C52.1994 41.0793 52.7476 41.5602 53.3977 41.8549C54.0478 42.1497 54.7707 42.2451 55.4751 42.129C56.1794 42.013 56.8335 41.6908 57.3548 41.2031C57.876 40.7154 58.241 40.0841 58.4035 39.3891C58.566 38.694 58.5189 37.9663 58.2679 37.298C58.017 36.6298 57.5736 36.0509 56.9938 35.6346C56.4139 35.2183 55.7237 34.9832 55.0102 34.9591C54.5361 34.9431 54.0635 35.0207 53.6193 35.1874C53.1752 35.3542 52.7683 35.6069 52.4219 35.931C52.0755 36.2551 51.7963 36.6444 51.6004 37.0764C51.4045 37.5085 51.2957 37.975 51.2802 38.4491Z" fill="#D08864"/>
<path d="M56.4695 39.2109C56.4307 38.8582 56.3019 38.5214 56.0955 38.2328C55.889 37.9442 55.6118 37.7135 55.2905 37.5629C54.9692 37.4123 54.6146 37.3468 54.2607 37.3727C53.9067 37.3987 53.5655 37.5151 53.2695 37.7109" stroke="#1A2328" stroke-width="0.76" stroke-linecap="round" stroke-linejoin="round"/>
<path d="M63.3395 17.9401C63.3395 17.9401 81.8095 17.4201 80.2295 31.1701L74.9995 30.6901L74.1795 27.4201L73.3495 30.9201L56.0395 31.5801L53.2695 23.4801L60.9295 20.4801L63.3395 17.9401Z" fill="#312220"/>
<path d="M54.0938 44.3156C56.9408 44.1898 59.1197 41.1671 58.9605 37.5642C58.8013 33.9613 56.3643 31.1425 53.5173 31.2683C50.6703 31.3941 48.4914 34.4168 48.6506 38.0197C48.8098 41.6226 51.2468 44.4414 54.0938 44.3156Z" fill="#492B7C"/>
<path d="M56.7695 37.6486C56.9195 40.9786 54.8995 43.7786 52.2595 43.8986C49.6195 44.0186 47.3595 41.4087 47.2595 38.0687C47.1595 34.7287 49.1295 31.9287 51.7695 31.8087C54.4095 31.6887 56.6095 34.3086 56.7695 37.6486Z" fill="#492B7C"/>
<path d="M71.3096 18.1016C72.5359 18.5326 73.6215 19.2897 74.4496 20.2916C72.2728 19.328 69.9856 18.6361 67.6396 18.2316L71.3096 18.1016Z" fill="#492B7C"/>
<path d="M52.4502 31.4518C52.4502 31.4518 53.8502 16.6418 66.4502 17.1618C66.8877 17.1867 67.3224 17.2469 67.7502 17.3418L71.3002 18.1018C71.3002 18.1018 59.7902 18.4018 56.0902 32.9318C56.1002 32.9318 55.7502 31.0018 52.4502 31.4518Z" fill="#492B7C"/>
<path d="M52.3817 44C52.3817 44 34.4774 58.8104 58.6477 74.2693C72.1739 82.9145 63.056 99.9224 81.7436 91.9106C105.141 81.8462 117 63.7625 117 63.7625" stroke="#312220" stroke-width="0.74" stroke-miterlimit="10"/>
</g>
<defs>
<clipPath id="clip0_108_14098">
<rect width="129.07" height="109.8" fill="white"/>
</clipPath>
</defs>
</svg>
